<svg width="390" height="109" viewBox="0 0 390 109" xmlns="http://www.w3.org/2000/svg" fill="#1f2937">
<path d="M42.256 108.152C34.96 108.152 28.864 107.672 23.968 106.712C19.072 105.752 15.088 104.12 12.016 101.816C8.944 99.512 6.592 96.44 4.96 92.6C3.424 88.76 2.368 83.96 1.792 78.2C1.216 72.44 0.928 65.528 0.928 57.464C0.928 49.4 1.216 42.488 1.792 36.728C2.368 30.968 3.424 26.168 4.96 22.328C6.592 18.488 8.944 15.416 12.016 13.112C15.088 10.808 19.072 9.17599 23.968 8.21599C28.864 7.25599 34.96 6.77599 42.256 6.77599C45.04 6.77599 47.92 6.872 50.896 7.064C53.968 7.256 56.896 7.544 59.68 7.928C62.464 8.312 64.816 8.744 66.736 9.224V24.92C64.144 24.632 61.648 24.392 59.248 24.2C56.848 23.912 54.592 23.72 52.48 23.624C50.464 23.528 48.736 23.48 47.296 23.48C42.4 23.48 38.368 23.672 35.2 24.056C32.032 24.44 29.488 25.256 27.568 26.504C25.744 27.656 24.4 29.48 23.536 31.976C22.672 34.376 22.096 37.64 21.808 41.768C21.52 45.896 21.376 51.128 21.376 57.464C21.376 63.704 21.52 68.936 21.808 73.16C22.096 77.288 22.672 80.6 23.536 83.096C24.4 85.496 25.744 87.32 27.568 88.568C29.488 89.72 32.032 90.488 35.2 90.872C38.368 91.256 42.4 91.448 47.296 91.448C50.464 91.448 53.92 91.304 57.664 91.016C61.408 90.728 64.624 90.392 67.312 90.008V105.992C65.2 106.376 62.704 106.712 59.824 107C56.944 107.384 53.968 107.672 50.896 107.864C47.92 108.056 45.04 108.152 42.256 108.152ZM80.8896 107V0.00799561H100.042V107H80.8896ZM149.634 108.152C143.106 108.152 137.682 107.72 133.362 106.856C129.042 105.992 125.586 104.648 122.994 102.824C120.498 100.904 118.578 98.504 117.234 95.624C115.986 92.648 115.17 89.096 114.786 84.968C114.498 80.744 114.354 75.896 114.354 70.424C114.354 63.896 114.69 58.232 115.362 53.432C116.034 48.632 117.426 44.696 119.538 41.624C121.746 38.456 125.106 36.152 129.618 34.712C134.226 33.176 140.322 32.408 147.906 32.408C154.05 32.408 159.042 32.888 162.882 33.848C166.722 34.808 169.746 36.248 171.954 38.168C174.258 40.088 175.89 42.584 176.85 45.656C177.906 48.632 178.578 52.184 178.866 56.312C179.154 60.44 179.298 65.144 179.298 70.424V76.04H133.362C133.362 79.688 133.506 82.664 133.794 84.968C134.178 87.176 134.994 88.856 136.242 90.008C137.586 91.16 139.65 91.928 142.434 92.312C145.314 92.696 149.202 92.888 154.098 92.888C156.114 92.888 158.37 92.84 160.866 92.744C163.458 92.648 166.098 92.504 168.786 92.312C171.57 92.12 174.114 91.928 176.418 91.736V105.848C174.306 106.328 171.714 106.712 168.642 107C165.666 107.384 162.498 107.672 159.138 107.864C155.874 108.056 152.706 108.152 149.634 108.152ZM161.154 66.536V64.232C161.154 60.488 160.914 57.512 160.434 55.304C160.05 53 159.33 51.272 158.274 50.12C157.314 48.968 155.97 48.248 154.242 47.96C152.514 47.576 150.306 47.384 147.618 47.384C144.45 47.384 141.954 47.624 140.13 48.104C138.306 48.488 136.914 49.304 135.954 50.552C134.994 51.704 134.322 53.432 133.938 55.736C133.554 57.944 133.362 60.776 133.362 64.232H163.746L161.154 66.536ZM211.502 108.152C206.798 108.152 202.814 107.48 199.55 106.136C196.286 104.696 193.79 102.392 192.062 99.224C190.43 95.96 189.614 91.688 189.614 86.408C189.614 80.744 190.286 76.28 191.63 73.016C192.974 69.656 195.326 67.256 198.686 65.816C202.046 64.28 206.702 63.512 212.654 63.512C213.614 63.512 214.958 63.56 216.686 63.656C218.414 63.656 220.382 63.704 222.59 63.8C224.798 63.8 227.006 63.848 229.214 63.944C231.422 63.944 233.438 63.992 235.262 64.088V61.208C235.262 58.04 235.022 55.544 234.542 53.72C234.062 51.896 233.15 50.552 231.806 49.688C230.462 48.824 228.494 48.296 225.902 48.104C223.31 47.912 219.95 47.816 215.822 47.816C213.71 47.816 211.262 47.864 208.478 47.96C205.694 48.056 203.006 48.2 200.414 48.392C197.822 48.584 195.758 48.776 194.222 48.968V34.568C198.35 33.896 202.814 33.368 207.614 32.984C212.414 32.6 217.262 32.408 222.158 32.408C227.918 32.408 232.718 32.792 236.558 33.56C240.494 34.232 243.614 35.336 245.918 36.872C248.318 38.408 250.094 40.376 251.246 42.776C252.494 45.08 253.31 47.864 253.694 51.128C254.078 54.296 254.27 57.944 254.27 62.072V107H236.558L235.982 98.072H234.83C233.198 101.048 231.038 103.256 228.35 104.696C225.758 106.136 222.974 107.048 219.998 107.432C217.118 107.912 214.286 108.152 211.502 108.152ZM220.574 93.464C222.686 93.464 224.51 93.32 226.046 93.032C227.678 92.744 229.07 92.264 230.222 91.592C231.47 90.824 232.43 89.864 233.102 88.712C233.774 87.464 234.302 85.928 234.686 84.104C235.07 82.28 235.262 80.072 235.262 77.48V75.32H217.838C215.15 75.32 213.086 75.512 211.646 75.896C210.206 76.28 209.246 77.144 208.766 78.488C208.286 79.832 208.046 81.848 208.046 84.536C208.046 87.032 208.334 88.952 208.91 90.296C209.486 91.544 210.686 92.408 212.51 92.888C214.334 93.272 217.022 93.464 220.574 93.464ZM271.324 107V33.56H289.18L289.756 46.232H290.908C292.156 42.584 293.836 39.752 295.948 37.736C298.156 35.72 300.796 34.328 303.868 33.56C306.94 32.792 310.444 32.408 314.38 32.408V50.552C308.14 50.552 303.244 51.416 299.692 53.144C296.236 54.872 293.788 57.704 292.348 61.64C291.004 65.576 290.332 70.904 290.332 77.624V107H271.324ZM324.537 107V33.56H342.393L342.969 42.776H344.121C345.465 40.376 347.097 38.408 349.017 36.872C351.033 35.336 353.481 34.232 356.361 33.56C359.337 32.792 362.697 32.408 366.441 32.408C371.433 32.408 375.417 33.032 378.393 34.28C381.465 35.528 383.817 37.352 385.449 39.752C387.081 42.152 388.137 45.128 388.617 48.68C389.193 52.232 389.481 56.36 389.481 61.064V107H370.473V68.12C370.473 63.704 370.329 60.2 370.041 57.608C369.753 55.016 369.177 53.096 368.313 51.848C367.449 50.6 366.153 49.832 364.425 49.544C362.697 49.16 360.393 48.968 357.513 48.968C354.441 48.968 351.945 49.352 350.025 50.12C348.201 50.792 346.809 51.944 345.849 53.576C344.985 55.112 344.361 57.176 343.977 59.768C343.689 62.264 343.545 65.336 343.545 68.984V107H324.537Z"/>
</svg>
